<svg width="203" height="113" viewBox="0 0 203 113" fill="none" xmlns="http://www.w3.org/2000/svg">
<path d="M23.0265 12.6506L32.0915 6.27784L22.0292 0.613761L21.2837 11.6696L23.0265 12.6506ZM202.206 47.6239L201.466 46.9513C190.001 59.5658 167.419 74.046 141.32 86.0604C115.243 98.0653 85.8001 107.542 60.6928 110.231C48.1377 111.576 36.7251 111.217 27.3796 108.67C18.047 106.126 10.8333 101.419 6.53497 94.0931C2.23015 86.7558 0.756032 76.6327 3.23618 63.0738C5.71674 49.5127 12.1399 32.5969 23.5197 11.7743L22.6422 11.2947L21.7647 10.8152C10.3291 31.7398 3.80201 48.8652 1.26882 62.714C-1.26478 76.565 0.183917 87.2204 4.80995 95.1052C9.44249 103.001 17.1677 107.96 26.8536 110.6C36.5265 113.236 48.2119 113.58 60.9058 112.22C86.2967 109.5 115.956 99.939 142.157 87.8772C168.337 75.8249 191.21 61.2091 202.946 48.2965L202.206 47.6239Z" fill="black"/>
</svg>
